<?xml version="1.0" standalone="no"?><!DOCTYPE svg PUBLIC "-//W3C//DTD SVG 1.1//EN" "http://www.w3.org/Graphics/SVG/1.1/DTD/svg11.dtd"><svg t="1718963632192" class="icon" viewBox="0 0 1024 1024" version="1.1" xmlns="http://www.w3.org/2000/svg" p-id="17263" xmlns:xlink="http://www.w3.org/1999/xlink" width="200" height="200"><path d="M245.260892 392.350103c25.897415 11.818095 42.323288 48.594985 44.371189 99.920504 1.407932 34.00369-2.559876 59.687782-12.927375 82.129364-24.062837 51.581507-67.324746 53.416085-92.28354 3.925143-10.666151-20.820327-15.273928-43.73122-15.273928-75.857667 0.255988-34.259677 3.925144-54.354706 14.804618-76.582965 15.487251-31.657137 38.184821-44.157866 61.309036-33.534379z m416.747858 3.24251c25.214781 16.639196 42.579275 69.415312 39.080777 118.436942-3.925144 58.493173-29.822559 100.603138-61.266372 100.603138-17.364494 0-35.155634-15.273928-46.717742-40.232722-19.199072-41.640654-18.047128-111.482612 2.7732-152.184645 15.487251-30.547857 43.688555-41.853977 66.130137-26.622713zM528.553867 1.286338c9.514207 1.365267 10.879474 2.559876 16.212549 12.458064 7.850287 14.335307 12.714052 19.45506 27.305347 28.926602 13.396686 8.532921 13.396686 9.002232 8.788909 30.974503-3.967808 18.516438-1.66392 36.776889 6.911666 53.202762 12.500729 24.745471 47.400376 50.642886 79.356164 58.74916 11.988754 3.24251 16.852519 3.455833 31.443814 0.938622 9.471542-1.407932 18.729761-2.090566 20.564339-1.407932 2.090566 0.938621 6.954331 8.532921 11.092797 17.108506 9.258219 19.92437 32.425099 43.73122 50.898873 52.306805 30.078546 14.079319 62.716969 13.396686 94.118118-2.13323 8.788909-4.35179 17.577817-7.124989 19.668383-6.442355 1.834578 0.682634 7.167654 5.973045 11.775431 11.562108 4.650442 5.802386 13.908661 13.183363 20.393681 16.425872 10.623487 5.546399 14.54863 6.229032 32.126447 5.973045 13.865996-0.213323 20.820327 0.511975 22.441582 2.559876 6.698343 8.106275 25.172117 93.904795 33.065068 152.909943 6.954331 52.946774 7.636964 171.383716 1.151945 223.135882-8.532921 70.14061-21.246973 130.255038-38.82479 184.353756-12.500729 38.398144-23.593526 63.612925-46.504419 104.784269C895.853447 1010.133577 882.414097 1023.999573 856.985992 1023.999573a85.755855 85.755855 0 0 1-21.03365-2.559876c-15.060605-5.077088-38.184821-22.868228-73.809766-56.658595-42.0673-39.763411-59.901105-53.629408-82.086699-64.508882-27.049359-13.43935-53.672073-14.591295-76.796288-3.24251-5.546399 2.773199-21.246973 15.273928-34.430336 27.987981-27.731993 26.366726-38.398144 32.126447-62.716968 33.747702-30.035882 1.877243-46.931065-5.759722-94.118118-42.323288-20.095029-15.487251-34.899647-22.441582-51.325519-23.806849-19.881706-1.621255-34.473 3.455833-66.599448 22.910893-31.699801 19.199072-48.594985 25.172117-70.567256 25.172116-45.779121 0-85.585197-28.158639-126.500552-89.467675C51.435594 782.517912 18.114538 686.522551 7.277728 591.508477c-4.181131-35.838268-4.863765-108.240102-1.407932-143.651723 18.260451-182.007203 106.405524-321.264472 248.649316-392.21571C298.8903 33.45545 347.698608 17.925534 403.418581 8.453991c41.640654-6.954331 102.949691-10.410164 125.135286-7.167653z m-95.52605 63.143615C325.982324 75.053439 221.880689 132.863978 159.206385 216.145286c-65.23418 86.737141-101.541759 230.3462-88.315731 349.423112 8.532921 78.929518 41.128679 168.397194 84.859898 234.100685 22.185594 33.278392 30.718515 42.536611 46.248431 50.173575 23.593526 11.562108 47.869686 7.423641 77.948233-13.183363 26.836036-18.516438 54.610694-26.580049 84.390588-24.958794 30.291869 1.834578 41.896642 7.850287 87.675762 46.931065 27.049359 23.124216 50.429563 25.684092 76.540301 8.319598 5.802386-3.925144 18.772426-13.865996 28.926601-22.185594 32.595758-27.049359 57.597216-36.563566 97.147305-36.776889 49.490941-0.255988 81.617388 18.260451 127.183186 73.809765 37.032877 44.797835 51.368184 54.098719 71.676536 46.461755 33.321056-12.714052 66.855435-88.827707 88.827706-201.206275 29.139925-148.472824 23.593526-278.258551-15.01794-357.10274-12.500729-25.94008-27.51867-42.579275-41.640654-46.717742-8.788909-2.559876-11.519443-2.346553-30.035882 3.669156-17.833805 5.802386-24.062837 6.741008-47.187053 6.741007-21.758948 0-29.395913-1.194609-42.323287-5.546398-24.745471-8.362262-35.838268-18.516438-63.399603-57.853204-12.714052-18.260451-23.806849-24.27616-53.885395-30.291869-55.463986-10.666151-78.161556-20.351016-97.829938-41.640654-18.516438-19.881706-30.291869-46.504419-38.824791-87.633098-2.346553-12.031418-6.48502-25.214781-9.044896-29.395913-9.471542-15.231264-32.382435-20.820327-70.097945-16.852518z" p-id="17264"></path></svg>