<?xml version="1.0" standalone="no"?><!DOCTYPE svg PUBLIC "-//W3C//DTD SVG 1.1//EN" "http://www.w3.org/Graphics/SVG/1.1/DTD/svg11.dtd"><svg t="1718962435452" class="icon" viewBox="0 0 1024 1024" version="1.1" xmlns="http://www.w3.org/2000/svg" p-id="1514" xmlns:xlink="http://www.w3.org/1999/xlink" width="200" height="200"><path d="M876.624 234.224l-150.874-150.872c-4-4-9.376-6.218-15.062-6.218-5.624 0-11.06 2.218-15.06 6.218L62.064 716.932c-8.344 8.312-8.344 21.812 0 30.156l150.84 150.842c10.062 10.062 23.938 15.186 41.218 15.186 46.998 0 115.03-39.56 163.84-72.748 68.53-46.594 143.668-110.154 217.292-183.778 85.746-85.78 158.558-174.558 204.996-249.994 23.248-37.716 38.81-70.466 46.31-97.31 9.44-33.78 6.128-59.03-9.936-75.062z" fill="#FFCE54" p-id="1515"></path><path d="M981.31 85.322c0 11.782-9.5 21.344-21.31 21.344-11.75 0-21.312-9.562-21.312-21.344S948.25 64.01 960 64.01a21.28 21.28 0 0 1 21.31 21.312z" fill="#5D9CEC" p-id="1516"></path><path d="M426.682 85.322c0 11.782-9.562 21.344-21.344 21.344-11.78 0-21.342-9.562-21.342-21.344s9.562-21.312 21.342-21.312c11.782 0 21.344 9.532 21.344 21.312z" fill="#ED5564" p-id="1517"></path><path d="M85.346 21.322c0 11.782-9.532 21.344-21.344 21.344-11.782 0-21.312-9.562-21.312-21.344 0-11.78 9.532-21.31 21.312-21.31 11.812 0 21.344 9.53 21.344 21.31z" fill="#AC92EB" p-id="1518"></path><path d="M938.688 469.312c0 11.782-9.562 21.344-21.376 21.344-11.75 0-21.312-9.562-21.312-21.344 0-11.78 9.562-21.31 21.312-21.31 11.812 0 21.376 9.532 21.376 21.31z" fill="#EC87C0" p-id="1519"></path><path d="M981.31 1002.644c0 11.782-9.5 21.344-21.31 21.344-11.75 0-21.312-9.562-21.312-21.344s9.562-21.342 21.312-21.342c11.81 0 21.31 9.562 21.31 21.342z" fill="#AC92EB" p-id="1520"></path><path d="M85.346 981.302c0 11.78-9.532 21.342-21.344 21.342-11.782 0-21.312-9.562-21.312-21.342a21.3 21.3 0 0 1 21.312-21.312c11.812 0 21.344 9.532 21.344 21.312z" fill="#A0D468" p-id="1521"></path><path d="M597.318 895.992c0 11.75-9.5 21.31-21.312 21.31-11.75 0-21.312-9.56-21.312-21.31 0-11.812 9.562-21.344 21.312-21.344 11.812 0 21.312 9.532 21.312 21.344z" fill="#FC6E51" p-id="1522"></path><path d="M896 746.65c0-11.782-9.562-21.344-21.312-21.344v-21.312c0-11.81-9.562-21.342-21.374-21.342-11.75 0-21.312 9.532-21.312 21.342v21.312c-11.75 0-21.312 9.562-21.312 21.344s9.562 21.342 21.312 21.342v21.312c0 11.782 9.562 21.344 21.312 21.344 11.81 0 21.374-9.562 21.374-21.344v-21.312c11.75 0 21.312-9.56 21.312-21.342z" fill="#48CFAD" p-id="1523"></path><path d="M106.69 298.66v-21.342c0-11.782-9.562-21.312-21.344-21.312s-21.344 9.532-21.344 21.312v21.342c-11.782 0-21.312 9.532-21.312 21.344a21.3 21.3 0 0 0 21.312 21.312v21.344c0 11.782 9.562 21.344 21.344 21.344s21.344-9.562 21.344-21.344v-21.344a21.3 21.3 0 0 0 21.312-21.312c0-11.812-9.532-21.344-21.312-21.344z" fill="#FC6E51" p-id="1524"></path><path d="M475.774 742.962c-7.874 7.876-20.592 8.406-29.092 0.968-7.25-6.312-13.124-6.438-22-6.624-13.876-0.312-39.686-0.876-47.78-39.688-5.312-25.56 5.094-49.248 26.466-60.31 22.282-11.562 49.032-5.812 68.156 14.688 8.03 8.594 7.592 22.094-1.032 30.124-8.624 8.062-22.124 7.594-30.156-1.032-6.906-7.406-13.5-7.906-17.344-5.906-4.094 2.124-5.688 7.124-4.312 13.718 0.562 2.718 1.124 4.468 1.562 5.532 1.532 0.124 3.656 0.186 5.376 0.216 11.312 0.25 30.188 0.656 49.092 17.156 8.876 7.718 9.812 21.218 2.062 30.094-0.342 0.378-0.654 0.722-0.998 1.064zM570.068 603.214c-3.5-1.876-4.562-3.654-4.624-7.654-0.062-35.968-30.358-50.376-50.702-51.282v0.094c-0.312-0.032-0.594-0.062-0.906-0.062-11.782 0-21.312 9.562-21.312 21.344 0 11.468 9.062 20.812 20.406 21.282 1.376 0.188 4.376 0.75 6.782 2.188 1.812 1.062 3.094 2.124 3.094 6.532 0.062 35.404 30.638 50.81 51.138 52.498 6.5 0.532 12.562-1.906 16.876-6.188a21.34 21.34 0 0 0 6.188-13.312c0.938-11.75-7.812-22.062-19.5-23.032-0.064 0-4.002-0.532-7.44-2.408zM376.434 807.93a18.12 18.12 0 0 1-2.156 1.906l-8.5 6.468a21.224 21.224 0 0 1-15.906 4.156 21.398 21.398 0 0 1-14.156-8.438c-0.094-0.094-9.188-12.282-21.094-24.094-12.344-12.218-20.75-17.124-25.032-18.75 0.438 4.594 2.968 14.124 11.688 29.5 8.218 14.562 17.312 26.188 17.406 26.312a21.352 21.352 0 0 1 4.376 15.876 21.436 21.436 0 0 1-8.25 14.25l-8.468 6.468c-9.376 7.124-22.78 5.312-29.904-4.062a21.27 21.27 0 0 1-2.468-21.686c-12.594-18.908-29.812-49.97-26.656-74.596 1.438-11.31 6.782-20.748 15.406-27.342 8.656-6.562 19.188-9.218 30.466-7.594 16.188 2.312 33.782 13.282 53.718 33.562a291.08 291.08 0 0 1 11.032 11.936 21.328 21.328 0 0 1 18.498 36.128zM704.126 521.75c-7.686 7.688-17.81 11.688-29.186 11.624-16.374-0.124-35.248-8.624-57.748-26.062a298.296 298.296 0 0 1-12.5-10.344c-7.312 2.218-15.562 0.438-21.312-5.344-8.312-8.312-8.312-21.844 0-30.154l7.562-7.562c4-4.032 9.5-6.282 15.188-6.218a21.34 21.34 0 0 1 15.188 6.438c0.062 0.094 10.75 10.968 24.124 21.06 13.876 10.438 22.81 14.188 27.31 15.218-1.062-4.468-4.75-13.438-15.248-27.31-10.124-13.344-20.938-24-21.062-24.094a21.07 21.07 0 0 1-6.438-15.156 21.326 21.326 0 0 1 6.188-15.218l7.562-7.562c8.312-8.312 21.874-8.312 30.186 0 5.75 5.75 7.5 13.938 5.376 21.188 15 17.062 36.248 45.53 36.374 70.342 0.124 11.404-3.876 21.466-11.564 29.154zM832.002 345.254a21.398 21.398 0 0 1-24.876 3.876l-8.188-4.25-37.312 48.31a21.22 21.22 0 0 1-14.876 8.188 21.296 21.296 0 0 1-16.188-5.312c-19.312-17.186-29.56-36.998-30.498-58.842-1.438-34.25 21.124-59.092 23.686-61.842 6.562-6.876 16.876-8.624 25.312-4.25l53.188 27.436c0.25 0.124 0.5 0.282 0.75 0.406l23.688 12.218c10.5 5.406 14.624 18.282 9.188 28.75a19.88 19.88 0 0 1-3.874 5.312z m-85.5-27.438c-2.312 5.094-4.124 11.282-3.812 17.876a32.05 32.05 0 0 0 2.062 9.532l15.624-20.25-13.874-7.158z" fill="#E8AA3D" p-id="1525"></path><path d="M725.752 83.354c-10.062-10.062-23.938-15.156-41.186-15.156-46.998 0-115.06 39.562-163.824 72.718-68.53 46.624-143.684 110.152-217.34 183.806-85.748 85.748-158.558 174.528-204.962 249.994-23.218 37.716-38.812 70.436-46.312 97.28-9.438 33.81-6.094 59.06 9.938 75.092 10.062 10.062 23.938 15.186 41.218 15.186 46.998 0 115.028-39.56 163.808-72.746 68.56-46.594 143.684-110.154 217.338-183.778 85.764-85.78 158.576-174.558 205.012-249.994 23.186-37.716 38.748-70.466 46.248-97.31 9.436-33.78 6.124-59.03-9.938-75.092z" fill="#F6BB42" p-id="1526"></path><path d="M653.506 155.632a21.252 21.252 0 0 0-24.25-4.156c-21.688 10.376-47.624 25.718-74.938 44.312-63.576 43.28-136.606 105.122-205.634 174.184-69.06 69.06-130.936 142.09-174.184 205.62-18.624 27.342-33.938 53.248-44.342 74.936a21.344 21.344 0 1 0 28.466 28.468c21.688-10.406 47.594-25.75 74.936-44.344 63.53-43.248 136.56-105.09 205.622-174.182 69.06-69.032 130.886-142.06 174.136-205.622 18.624-27.312 34-53.248 44.376-74.936 3.874-8.154 2.25-17.904-4.188-24.28z" fill="#E8AA3D" p-id="1527"></path></svg>